<?xml version="1.0" encoding="UTF-8" standalone="no"?>
<svg
   xmlns:dc="http://purl.org/dc/elements/1.1/"
   xmlns:cc="http://creativecommons.org/ns#"
   xmlns:rdf="http://www.w3.org/1999/02/22-rdf-syntax-ns#"
   xmlns:svg="http://www.w3.org/2000/svg"
   xmlns="http://www.w3.org/2000/svg"
   xmlns:sodipodi="http://sodipodi.sourceforge.net/DTD/sodipodi-0.dtd"
   xmlns:inkscape="http://www.inkscape.org/namespaces/inkscape"
   viewBox="0 0 793.33331 1121.3333"
   height="1121.3333"
   width="793.33331"
   xml:space="preserve"
   id="svg2"
   version="1.1"
   sodipodi:docname="ibge-logo.svg"
   inkscape:version="0.92.2 (5c3e80d, 2017-08-06)"><sodipodi:namedview
     pagecolor="#ffffff"
     bordercolor="#666666"
     borderopacity="1"
     objecttolerance="10"
     gridtolerance="10"
     guidetolerance="10"
     inkscape:pageopacity="0"
     inkscape:pageshadow="2"
     inkscape:window-width="1600"
     inkscape:window-height="837"
     id="namedview174"
     showgrid="false"
     inkscape:zoom="0.59528138"
     inkscape:cx="734.32803"
     inkscape:cy="907.2398"
     inkscape:window-x="-8"
     inkscape:window-y="-8"
     inkscape:window-maximized="1"
     inkscape:current-layer="g178" /><metadata
     id="metadata8"><rdf:RDF><cc:Work
         rdf:about=""><dc:format>image/svg+xml</dc:format><dc:type
           rdf:resource="http://purl.org/dc/dcmitype/StillImage" /><dc:title></dc:title></cc:Work></rdf:RDF></metadata><defs
     id="defs6"><clipPath
       id="clipPath18"
       clipPathUnits="userSpaceOnUse"><path
         style="clip-rule:evenodd"
         id="path16"
         d="M 0,841.89 H 595.276 V 0 H 0 Z" /></clipPath><clipPath
       id="clipPath26"
       clipPathUnits="userSpaceOnUse"><path
         id="path24"
         d="M 0,841.2 H 595.2 V 0.24 L 0,0.24 Z" /></clipPath><clipPath
       id="clipPath38"
       clipPathUnits="userSpaceOnUse"><path
         style="clip-rule:evenodd"
         id="path36"
         d="M 320.437,841.89 317.635,0 H 0 v 841.89 h 320.437" /></clipPath><clipPath
       id="clipPath46"
       clipPathUnits="userSpaceOnUse"><path
         id="path44"
         d="M 0,841.2 H 595.2 V 0.24 L 0,0.24 Z" /></clipPath><clipPath
       id="clipPath174"
       clipPathUnits="userSpaceOnUse"><path
         style="clip-rule:evenodd"
         id="path172"
         d="M 0,841.89 H 595.276 V 0 H 0 Z" /></clipPath><clipPath
       id="clipPath182"
       clipPathUnits="userSpaceOnUse"><path
         id="path180"
         d="M 0,841.2 H 595.2 V 0.24 L 0,0.24 Z" /></clipPath></defs><g
     transform="matrix(1.3333333,0,0,-1.3333333,0,1121.3333)"
     id="g10"><g
       id="g168"><g
         clip-path="url(#clipPath174)"
         id="g170"><g
           id="g176"><g
             clip-path="url(#clipPath182)"
             id="g178"><g
               transform="matrix(4.6558343,0,0,4.6558343,34.407434,449.0869)"
               id="g190"><path
                 id="path192"
                 style="fill:#004f88;fill-opacity:1;fill-rule:evenodd;stroke:none"
                 d="M -0.493,0 H 0 V -4.43 H -0.493 Z M 0,0 Z m 0.867,-1.345 h 0.43 v -0.421 c 0.192,0.334 0.48,0.505 0.859,0.508 0.161,0 0.309,-0.032 0.444,-0.096 0.311,-0.145 0.474,-0.509 0.498,-1.094 L 3.101,-2.596 V -4.43 h -0.46 v 1.85 c 0,0.447 -0.111,0.724 -0.334,0.836 C 2.224,-1.702 2.13,-1.683 2.029,-1.683 1.565,-1.679 1.331,-1.978 1.326,-2.58 V -4.43 H 0.867 Z M 4.214,-3.5 c 0.026,-0.399 0.21,-0.595 0.55,-0.595 0.381,0.006 0.573,0.173 0.581,0.508 0,0.155 -0.063,0.267 -0.187,0.335 -0.083,0.041 -0.174,0.077 -0.27,0.109 -0.161,0.055 -0.322,0.106 -0.482,0.161 -0.213,0.074 -0.358,0.164 -0.436,0.267 -0.106,0.135 -0.161,0.315 -0.161,0.543 -0.002,0.184 0.042,0.345 0.13,0.489 0.088,0.145 0.197,0.248 0.332,0.312 0.156,0.078 0.322,0.113 0.501,0.113 0.29,0 0.516,-0.061 0.679,-0.183 0.117,-0.09 0.197,-0.193 0.244,-0.309 0.034,-0.09 0.054,-0.232 0.062,-0.425 H 5.28 C 5.259,-1.846 5.101,-1.683 4.805,-1.683 4.657,-1.686 4.546,-1.715 4.465,-1.766 4.341,-1.85 4.281,-1.962 4.287,-2.107 4.281,-2.271 4.346,-2.387 4.486,-2.451 4.616,-2.506 4.81,-2.574 5.072,-2.654 5.192,-2.693 5.303,-2.738 5.405,-2.786 5.677,-2.924 5.814,-3.172 5.82,-3.532 5.82,-3.857 5.713,-4.111 5.498,-4.301 5.329,-4.449 5.098,-4.523 4.808,-4.517 4.406,-4.523 4.118,-4.417 3.941,-4.201 3.825,-4.063 3.757,-3.832 3.739,-3.5 Z m 2.011,2.155 h 0.508 v 0.579 l 0.459,0.235 V -1.345 H 7.817 V -1.76 H 7.192 V -3.626 L 7.2,-3.825 7.218,-3.928 c 0.029,-0.116 0.117,-0.171 0.265,-0.167 0.088,0 0.2,0.016 0.334,0.048 V -4.472 C 7.628,-4.501 7.472,-4.517 7.353,-4.517 c -0.392,0 -0.599,0.2 -0.617,0.589 L 6.733,-3.606 V -1.76 H 6.225 Z m 2.221,0 H 8.905 V -4.43 H 8.446 Z m 0.459,0 z M 8.425,0.007 H 8.928 V -0.585 H 8.425 Z m 0.503,0 z m 0.52,-1.352 h 0.508 v 0.579 l 0.459,0.235 V -1.345 H 11.04 V -1.76 h -0.625 v -1.866 l 0.008,-0.199 0.018,-0.103 c 0.029,-0.116 0.117,-0.171 0.265,-0.167 0.088,0 0.199,0.016 0.334,0.048 v -0.425 c -0.189,-0.029 -0.345,-0.045 -0.464,-0.045 -0.391,0 -0.599,0.2 -0.617,0.589 L 9.956,-3.606 V -1.76 H 9.448 Z m 2.643,0 v -1.769 c 0,-0.232 0.021,-0.425 0.063,-0.576 0.064,-0.267 0.254,-0.402 0.568,-0.405 0.225,-0.004 0.407,0.087 0.547,0.27 0.091,0.119 0.137,0.357 0.137,0.711 v 1.769 h 0.46 V -4.43 H 13.44 v 0.428 c -0.192,-0.341 -0.475,-0.515 -0.85,-0.515 -0.353,0 -0.61,0.129 -0.776,0.389 -0.119,0.187 -0.179,0.528 -0.179,1.03 v 1.753 z m 2.302,0 h 0.508 v 0.579 l 0.459,0.235 v -0.814 h 0.625 V -1.76 H 15.36 v -1.866 l 0.008,-0.199 0.018,-0.103 c 0.029,-0.116 0.117,-0.171 0.265,-0.167 0.088,0 0.2,0.016 0.334,0.048 v -0.425 c -0.189,-0.029 -0.344,-0.045 -0.464,-0.045 -0.391,0 -0.599,0.2 -0.617,0.589 l -0.003,0.322 v 1.846 h -0.508 z m 2.102,-1.538 c -0.003,0.338 0.049,0.631 0.155,0.888 0.125,0.296 0.301,0.499 0.532,0.615 0.163,0.083 0.34,0.122 0.535,0.122 0.186,0 0.355,-0.039 0.508,-0.113 0.262,-0.125 0.454,-0.363 0.57,-0.714 0.081,-0.238 0.122,-0.505 0.12,-0.794 0,-0.351 -0.052,-0.653 -0.159,-0.904 -0.129,-0.299 -0.311,-0.505 -0.544,-0.615 -0.166,-0.08 -0.34,-0.119 -0.527,-0.119 -0.381,0 -0.682,0.155 -0.895,0.467 -0.194,0.28 -0.293,0.669 -0.295,1.167 z m 0.477,-0.025 c -0.003,-0.245 0.026,-0.464 0.085,-0.653 0.102,-0.351 0.317,-0.528 0.644,-0.534 0.256,-0.004 0.451,0.128 0.581,0.395 0.104,0.216 0.155,0.493 0.155,0.834 0,0.237 -0.031,0.457 -0.093,0.659 -0.104,0.347 -0.311,0.521 -0.625,0.524 -0.257,-0.003 -0.454,-0.135 -0.586,-0.395 -0.107,-0.2 -0.159,-0.476 -0.161,-0.83 z M 21.455,0 h 1.208 c 0.145,0 0.281,-0.01 0.41,-0.029 0.252,-0.039 0.457,-0.151 0.607,-0.332 0.166,-0.199 0.249,-0.45 0.254,-0.755 -0.002,-0.209 -0.044,-0.396 -0.127,-0.554 -0.101,-0.186 -0.218,-0.308 -0.35,-0.366 -0.036,-0.02 -0.096,-0.036 -0.174,-0.052 0.522,-0.145 0.784,-0.528 0.784,-1.152 -0.006,-0.46 -0.159,-0.794 -0.457,-1 -0.137,-0.096 -0.293,-0.155 -0.464,-0.174 -0.088,-0.009 -0.252,-0.013 -0.483,-0.016 h -1.208 z m 0.493,-3.918 h 0.728 c 0.301,0 0.503,0.038 0.615,0.109 0.187,0.126 0.28,0.344 0.28,0.653 -0.005,0.518 -0.303,0.775 -0.895,0.782 h -0.728 z m 0,2.055 h 0.736 c 0.509,0.003 0.76,0.225 0.755,0.67 0,0.45 -0.252,0.678 -0.755,0.681 h -0.736 z m 2.708,0.518 h 0.459 v -0.338 l 0.101,0.136 c 0.076,0.096 0.159,0.163 0.249,0.209 0.104,0.051 0.218,0.08 0.338,0.08 h 0.142 v -0.524 l -0.158,0.013 c -0.26,0 -0.446,-0.123 -0.56,-0.364 -0.073,-0.164 -0.112,-0.431 -0.112,-0.801 V -4.43 h -0.459 z m 1.902,-0.814 c 0.018,0.2 0.044,0.338 0.073,0.418 0.049,0.123 0.129,0.226 0.241,0.306 0.169,0.116 0.394,0.177 0.677,0.177 0.314,0 0.55,-0.067 0.711,-0.196 0.194,-0.155 0.29,-0.415 0.295,-0.788 v -1.204 l 0.003,-0.237 0.005,-0.309 c 0.005,-0.129 0.016,-0.229 0.029,-0.299 l 0.033,-0.139 h -0.443 c -0.042,0.148 -0.065,0.29 -0.07,0.425 l -0.039,-0.074 c -0.044,-0.077 -0.096,-0.148 -0.156,-0.203 -0.155,-0.154 -0.355,-0.235 -0.594,-0.235 -0.161,0 -0.311,0.036 -0.451,0.107 -0.099,0.045 -0.179,0.112 -0.246,0.199 -0.057,0.071 -0.104,0.161 -0.135,0.261 -0.044,0.122 -0.063,0.247 -0.063,0.386 0,0.125 0.016,0.244 0.055,0.36 0.036,0.116 0.093,0.222 0.171,0.315 0.091,0.116 0.187,0.196 0.288,0.241 0.218,0.097 0.49,0.148 0.812,0.152 h 0.342 c 0,0.312 -0.026,0.514 -0.078,0.608 -0.083,0.135 -0.236,0.205 -0.459,0.205 -0.155,0 -0.275,-0.032 -0.36,-0.093 -0.083,-0.061 -0.141,-0.186 -0.164,-0.383 z m 1.538,-0.752 h -0.293 c -0.236,-0.004 -0.428,-0.032 -0.576,-0.094 -0.212,-0.083 -0.321,-0.264 -0.321,-0.54 0,-0.183 0.054,-0.322 0.158,-0.415 0.104,-0.09 0.228,-0.135 0.371,-0.135 0.316,0 0.513,0.157 0.591,0.466 0.047,0.183 0.07,0.422 0.07,0.718 z M 29.664,-3.5 c 0.026,-0.399 0.21,-0.595 0.549,-0.595 0.382,0.006 0.574,0.173 0.581,0.508 0,0.155 -0.062,0.267 -0.186,0.335 -0.083,0.041 -0.174,0.077 -0.27,0.109 -0.161,0.055 -0.322,0.106 -0.482,0.161 -0.213,0.074 -0.358,0.164 -0.436,0.267 -0.107,0.135 -0.161,0.315 -0.161,0.543 -0.003,0.184 0.042,0.345 0.13,0.489 0.088,0.145 0.197,0.248 0.332,0.312 0.155,0.078 0.321,0.113 0.5,0.113 0.291,0 0.516,-0.061 0.68,-0.183 0.117,-0.09 0.197,-0.193 0.244,-0.309 0.033,-0.09 0.054,-0.232 0.062,-0.425 H 30.73 c -0.021,0.329 -0.179,0.492 -0.475,0.492 -0.148,-0.003 -0.259,-0.032 -0.34,-0.083 -0.124,-0.084 -0.184,-0.196 -0.179,-0.341 -0.005,-0.164 0.06,-0.28 0.2,-0.344 0.13,-0.055 0.324,-0.123 0.586,-0.203 0.119,-0.039 0.231,-0.084 0.332,-0.132 0.272,-0.138 0.41,-0.386 0.415,-0.746 0,-0.325 -0.106,-0.579 -0.321,-0.769 -0.169,-0.148 -0.4,-0.222 -0.69,-0.216 -0.402,-0.006 -0.69,0.1 -0.867,0.316 -0.116,0.138 -0.184,0.369 -0.202,0.701 z m 2.286,2.155 h 0.459 V -4.43 H 31.95 Z m 0.459,0 z m -0.48,1.352 h 0.503 v -0.592 h -0.503 z m 0.503,0 z m 0.781,0 h 0.459 V -4.43 h -0.459 z m 1.635,-2.973 c 0.013,-0.283 0.037,-0.489 0.073,-0.614 0.065,-0.222 0.176,-0.374 0.329,-0.447 0.088,-0.046 0.179,-0.068 0.28,-0.068 0.343,0.006 0.54,0.221 0.592,0.653 h 0.477 c -0.036,-0.274 -0.093,-0.47 -0.166,-0.592 -0.111,-0.177 -0.244,-0.302 -0.402,-0.376 -0.156,-0.075 -0.322,-0.11 -0.498,-0.107 -0.389,-0.003 -0.682,0.145 -0.879,0.438 -0.192,0.286 -0.286,0.666 -0.281,1.145 -0.002,0.335 0.04,0.634 0.122,0.898 0.078,0.244 0.216,0.44 0.418,0.588 0.174,0.129 0.379,0.193 0.617,0.19 0.675,-0.006 1.038,-0.428 1.085,-1.267 l 0.007,-0.441 z m 0,0.415 h 1.297 c -0.008,0.302 -0.054,0.515 -0.137,0.634 -0.107,0.154 -0.268,0.234 -0.485,0.234 -0.345,0 -0.555,-0.209 -0.633,-0.62 z m 2.463,1.206 H 37.77 V -4.43 h -0.459 z m 0.459,0 z m -0.48,1.352 h 0.503 V -0.585 H 37.29 Z m 0.503,0 z m 0.779,-1.352 h 0.459 v -0.338 l 0.101,0.136 c 0.075,0.096 0.158,0.163 0.249,0.209 0.104,0.051 0.218,0.08 0.337,0.08 h 0.143 v -0.524 l -0.158,0.013 c -0.26,0 -0.447,-0.123 -0.56,-0.364 -0.073,-0.164 -0.112,-0.431 -0.112,-0.801 V -4.43 h -0.459 z m 1.749,-1.538 c -0.003,0.338 0.049,0.631 0.155,0.888 0.125,0.296 0.301,0.499 0.532,0.615 0.164,0.083 0.34,0.122 0.534,0.122 0.187,0 0.356,-0.039 0.509,-0.113 0.262,-0.125 0.454,-0.363 0.57,-0.714 0.081,-0.238 0.122,-0.505 0.12,-0.794 0,-0.351 -0.052,-0.653 -0.158,-0.904 -0.13,-0.299 -0.312,-0.505 -0.545,-0.615 -0.166,-0.08 -0.34,-0.119 -0.527,-0.119 -0.381,0 -0.682,0.155 -0.894,0.467 -0.195,0.28 -0.294,0.669 -0.296,1.167 z m 0.477,-0.025 c -0.003,-0.245 0.026,-0.464 0.086,-0.653 0.101,-0.351 0.316,-0.528 0.643,-0.534 0.257,-0.004 0.451,0.128 0.581,0.395 0.104,0.216 0.156,0.493 0.156,0.834 0,0.237 -0.031,0.457 -0.094,0.659 -0.104,0.347 -0.311,0.521 -0.625,0.524 -0.257,-0.003 -0.454,-0.135 -0.586,-0.395 -0.106,-0.2 -0.159,-0.476 -0.161,-0.83 z m 6.13,2.915 h 0.456 V -4.43 h -0.456 v 0.399 c -0.171,-0.325 -0.433,-0.486 -0.781,-0.486 -0.153,-0.003 -0.293,0.029 -0.418,0.1 -0.446,0.235 -0.669,0.74 -0.664,1.518 0,0.47 0.086,0.846 0.254,1.13 0.206,0.337 0.486,0.508 0.838,0.511 0.286,-0.003 0.509,-0.113 0.67,-0.331 l 0.101,-0.148 z M 45.54,-2.934 c 0,-0.322 0.047,-0.582 0.143,-0.779 0.124,-0.25 0.303,-0.379 0.537,-0.382 0.469,0.009 0.705,0.421 0.708,1.238 0,0.228 -0.029,0.448 -0.091,0.653 -0.044,0.151 -0.122,0.277 -0.233,0.38 -0.104,0.093 -0.224,0.141 -0.361,0.141 -0.259,0 -0.449,-0.138 -0.566,-0.418 -0.093,-0.222 -0.14,-0.502 -0.137,-0.833 z m 3.017,-0.032 c 0.014,-0.283 0.037,-0.489 0.073,-0.614 0.065,-0.222 0.177,-0.374 0.329,-0.447 0.089,-0.046 0.179,-0.068 0.281,-0.068 0.342,0.006 0.539,0.221 0.591,0.653 h 0.477 c -0.036,-0.274 -0.093,-0.47 -0.166,-0.592 -0.111,-0.177 -0.244,-0.302 -0.402,-0.376 -0.156,-0.075 -0.321,-0.11 -0.498,-0.107 -0.389,-0.003 -0.682,0.145 -0.879,0.438 -0.192,0.286 -0.285,0.666 -0.28,1.145 -0.003,0.335 0.039,0.634 0.122,0.898 0.078,0.244 0.215,0.44 0.417,0.588 0.174,0.129 0.379,0.193 0.618,0.19 0.674,-0.006 1.037,-0.428 1.084,-1.267 l 0.008,-0.441 z m 0,0.415 h 1.297 c -0.008,0.302 -0.054,0.515 -0.137,0.634 -0.106,0.154 -0.267,0.234 -0.485,0.234 -0.345,0 -0.555,-0.209 -0.633,-0.62 z m 5.93,0.531 h 1.302 v -2.239 c -0.521,-0.171 -0.938,-0.258 -1.255,-0.258 -0.327,-0.003 -0.62,0.061 -0.879,0.187 -0.314,0.151 -0.553,0.431 -0.716,0.843 -0.137,0.341 -0.202,0.746 -0.2,1.219 -0.002,0.698 0.138,1.258 0.42,1.676 0.309,0.457 0.74,0.682 1.292,0.679 0.202,0 0.4,-0.032 0.589,-0.097 0.462,-0.157 0.711,-0.505 0.747,-1.045 l 0.002,-0.081 h -0.495 l -0.039,0.177 c -0.028,0.107 -0.075,0.193 -0.134,0.264 -0.084,0.1 -0.182,0.167 -0.294,0.209 -0.111,0.042 -0.231,0.061 -0.355,0.061 -0.179,0 -0.35,-0.038 -0.511,-0.116 -0.394,-0.183 -0.628,-0.588 -0.701,-1.222 -0.018,-0.151 -0.028,-0.309 -0.028,-0.466 0,-0.348 0.041,-0.663 0.125,-0.946 0.155,-0.553 0.552,-0.83 1.19,-0.83 0.197,-0.003 0.405,0.029 0.628,0.1 l 0.119,0.045 v 1.328 h -0.807 z m 2.512,-0.946 c 0.013,-0.283 0.036,-0.489 0.073,-0.614 0.065,-0.222 0.176,-0.374 0.329,-0.447 0.088,-0.046 0.179,-0.068 0.28,-0.068 0.342,0.006 0.54,0.221 0.591,0.653 h 0.478 c -0.036,-0.274 -0.094,-0.47 -0.166,-0.592 -0.112,-0.177 -0.244,-0.302 -0.402,-0.376 -0.156,-0.075 -0.322,-0.11 -0.498,-0.107 -0.389,-0.003 -0.682,0.145 -0.879,0.438 -0.192,0.286 -0.286,0.666 -0.281,1.145 -0.002,0.335 0.039,0.634 0.122,0.898 0.078,0.244 0.216,0.44 0.418,0.588 0.174,0.129 0.378,0.193 0.617,0.19 0.675,-0.006 1.038,-0.428 1.084,-1.267 l 0.008,-0.441 z m 0,0.415 h 1.297 c -0.008,0.302 -0.055,0.515 -0.138,0.634 -0.106,0.154 -0.267,0.234 -0.485,0.234 -0.345,0 -0.555,-0.209 -0.632,-0.62 z m 2.343,-0.332 c -0.003,0.338 0.049,0.631 0.156,0.888 0.124,0.296 0.3,0.499 0.531,0.615 0.164,0.083 0.34,0.122 0.535,0.122 0.186,0 0.355,-0.039 0.508,-0.113 0.262,-0.125 0.454,-0.363 0.571,-0.714 0.08,-0.238 0.122,-0.505 0.119,-0.794 0,-0.351 -0.052,-0.653 -0.158,-0.904 -0.13,-0.299 -0.312,-0.505 -0.545,-0.615 -0.166,-0.08 -0.34,-0.119 -0.527,-0.119 -0.381,0 -0.682,0.155 -0.894,0.467 -0.195,0.28 -0.294,0.669 -0.296,1.167 z m 0.477,-0.025 c -0.002,-0.245 0.026,-0.464 0.086,-0.653 0.101,-0.351 0.316,-0.528 0.643,-0.534 0.257,-0.004 0.452,0.128 0.581,0.395 0.104,0.216 0.156,0.493 0.156,0.834 0,0.237 -0.031,0.457 -0.094,0.659 -0.103,0.347 -0.311,0.521 -0.625,0.524 -0.256,-0.003 -0.454,-0.135 -0.586,-0.395 -0.106,-0.2 -0.158,-0.476 -0.161,-0.83 z m 3.114,-1.763 0.002,-0.103 c 0.026,-0.318 0.218,-0.476 0.573,-0.476 0.402,0 0.626,0.244 0.667,0.733 0.008,0.126 0.013,0.245 0.013,0.354 v 0.309 L 64.11,-3.992 c -0.171,-0.261 -0.415,-0.39 -0.736,-0.386 -0.314,-0.004 -0.556,0.112 -0.724,0.344 -0.096,0.125 -0.169,0.267 -0.213,0.421 -0.075,0.235 -0.111,0.496 -0.109,0.772 0,0.267 0.034,0.518 0.107,0.753 0.072,0.251 0.204,0.454 0.396,0.611 0.182,0.148 0.384,0.222 0.613,0.219 0.298,0 0.529,-0.129 0.687,-0.38 l 0.057,-0.099 v 0.392 h 0.459 v -2.828 c -0.002,-0.267 -0.016,-0.469 -0.039,-0.601 -0.034,-0.219 -0.104,-0.396 -0.215,-0.534 -0.192,-0.248 -0.493,-0.367 -0.9,-0.367 -0.641,-0.006 -0.983,0.257 -1.03,0.798 l -0.008,0.206 z m -0.13,1.821 c 0,-0.74 0.226,-1.11 0.679,-1.107 0.467,0.003 0.703,0.389 0.711,1.161 0,0.332 -0.049,0.586 -0.145,0.766 -0.13,0.238 -0.314,0.354 -0.55,0.347 -0.464,0.007 -0.695,-0.382 -0.695,-1.167 z m 2.641,1.505 h 0.459 v -0.338 l 0.101,0.136 c 0.076,0.096 0.159,0.163 0.25,0.209 0.103,0.051 0.217,0.08 0.337,0.08 h 0.143 v -0.524 l -0.159,0.013 c -0.259,0 -0.446,-0.123 -0.56,-0.364 -0.073,-0.164 -0.112,-0.431 -0.112,-0.801 V -4.43 h -0.459 z m 1.902,-0.814 c 0.019,0.2 0.044,0.338 0.073,0.418 0.049,0.123 0.129,0.226 0.241,0.306 0.169,0.116 0.394,0.177 0.677,0.177 0.314,0 0.55,-0.067 0.711,-0.196 0.194,-0.155 0.29,-0.415 0.295,-0.788 v -1.204 l 0.003,-0.237 0.005,-0.309 c 0.005,-0.129 0.016,-0.229 0.029,-0.299 L 69.413,-4.43 H 68.97 c -0.042,0.148 -0.065,0.29 -0.07,0.425 l -0.039,-0.074 c -0.044,-0.077 -0.096,-0.148 -0.155,-0.203 -0.156,-0.154 -0.356,-0.235 -0.595,-0.235 -0.161,0 -0.311,0.036 -0.451,0.107 -0.098,0.045 -0.179,0.112 -0.246,0.199 -0.057,0.071 -0.104,0.161 -0.135,0.261 -0.044,0.122 -0.062,0.247 -0.062,0.386 0,0.125 0.015,0.244 0.054,0.36 0.036,0.116 0.094,0.222 0.171,0.315 0.091,0.116 0.187,0.196 0.288,0.241 0.218,0.097 0.49,0.148 0.812,0.152 h 0.342 c 0,0.312 -0.026,0.514 -0.077,0.608 -0.084,0.135 -0.237,0.205 -0.459,0.205 -0.156,0 -0.276,-0.032 -0.361,-0.093 -0.083,-0.061 -0.14,-0.186 -0.164,-0.383 z m 1.538,-0.752 h -0.293 c -0.236,-0.004 -0.428,-0.032 -0.576,-0.094 -0.212,-0.083 -0.321,-0.264 -0.321,-0.54 0,-0.183 0.054,-0.322 0.158,-0.415 0.104,-0.09 0.228,-0.135 0.371,-0.135 0.316,0 0.513,0.157 0.591,0.466 0.047,0.183 0.07,0.422 0.07,0.718 z m 1.513,1.566 0.003,0.341 c -0.003,0.325 0.021,0.547 0.067,0.666 0.078,0.2 0.226,0.315 0.444,0.357 0.088,0.016 0.181,0.026 0.28,0.026 l 0.171,-0.01 0.078,-0.013 v -0.424 l -0.179,0.022 c -0.067,0 -0.124,-0.006 -0.174,-0.022 -0.111,-0.032 -0.181,-0.11 -0.207,-0.229 -0.018,-0.09 -0.026,-0.212 -0.024,-0.363 V -1.345 H 71.44 V -1.76 h -0.584 v -2.67 h -0.459 v 2.67 H 69.91 v 0.415 z m 1.669,0 h 0.459 V -4.43 h -0.459 z m 0.459,0 z m -0.48,1.352 h 0.503 v -0.592 h -0.503 z m 0.503,0 z m 0.829,-2.166 c 0.018,0.2 0.043,0.338 0.072,0.418 0.049,0.123 0.13,0.226 0.241,0.306 0.169,0.116 0.395,0.177 0.677,0.177 0.314,0 0.55,-0.067 0.711,-0.196 0.194,-0.155 0.29,-0.415 0.296,-0.788 v -1.204 l 0.002,-0.237 0.005,-0.309 c 0.006,-0.129 0.016,-0.229 0.029,-0.299 L 75.444,-4.43 H 75 c -0.041,0.148 -0.065,0.29 -0.07,0.425 l -0.039,-0.074 c -0.044,-0.077 -0.096,-0.148 -0.156,-0.203 -0.155,-0.154 -0.355,-0.235 -0.593,-0.235 -0.161,0 -0.312,0.036 -0.452,0.107 -0.098,0.045 -0.179,0.112 -0.246,0.199 -0.057,0.071 -0.104,0.161 -0.135,0.261 -0.044,0.122 -0.062,0.247 -0.062,0.386 0,0.125 0.015,0.244 0.054,0.36 0.036,0.116 0.094,0.222 0.171,0.315 0.091,0.116 0.187,0.196 0.288,0.241 0.218,0.097 0.49,0.148 0.812,0.152 h 0.343 c 0,0.312 -0.026,0.514 -0.078,0.608 -0.083,0.135 -0.236,0.205 -0.46,0.205 -0.155,0 -0.274,-0.032 -0.36,-0.093 -0.083,-0.061 -0.14,-0.186 -0.163,-0.383 z m 1.538,-0.752 h -0.294 c -0.236,-0.004 -0.428,-0.032 -0.575,-0.094 -0.213,-0.083 -0.322,-0.264 -0.322,-0.54 0,-0.183 0.054,-0.322 0.158,-0.415 0.104,-0.09 0.228,-0.135 0.371,-0.135 0.317,0 0.514,0.157 0.592,0.466 0.046,0.183 0.07,0.422 0.07,0.718 z m 3.354,-0.055 c 0.013,-0.283 0.036,-0.489 0.072,-0.614 0.065,-0.222 0.177,-0.374 0.33,-0.447 0.088,-0.046 0.179,-0.068 0.28,-0.068 0.342,0.006 0.54,0.221 0.591,0.653 h 0.477 c -0.036,-0.274 -0.093,-0.47 -0.165,-0.592 -0.112,-0.177 -0.244,-0.302 -0.403,-0.376 -0.155,-0.075 -0.321,-0.11 -0.498,-0.107 -0.389,-0.003 -0.682,0.145 -0.879,0.438 -0.192,0.286 -0.285,0.666 -0.28,1.145 -0.002,0.335 0.039,0.634 0.122,0.898 0.078,0.244 0.215,0.44 0.418,0.588 0.174,0.129 0.378,0.193 0.617,0.19 0.674,-0.006 1.038,-0.428 1.084,-1.267 l 0.008,-0.441 z m 0,0.415 h 1.297 c -0.008,0.302 -0.055,0.515 -0.138,0.634 -0.106,0.154 -0.267,0.234 -0.485,0.234 -0.345,0 -0.555,-0.209 -0.633,-0.62 z M 82.585,0 h 2.182 v -0.512 h -1.689 v -1.383 h 1.611 v -0.511 h -1.611 v -1.512 h 1.741 V -4.43 h -2.234 z m 3.251,-3.5 c 0.026,-0.399 0.211,-0.595 0.55,-0.595 0.382,0.006 0.574,0.173 0.581,0.508 0,0.155 -0.062,0.267 -0.187,0.335 -0.083,0.041 -0.173,0.077 -0.269,0.109 -0.161,0.055 -0.322,0.106 -0.483,0.161 -0.213,0.074 -0.358,0.164 -0.435,0.267 -0.107,0.135 -0.161,0.315 -0.161,0.543 -0.003,0.184 0.041,0.345 0.129,0.489 0.088,0.145 0.197,0.248 0.332,0.312 0.156,0.078 0.322,0.113 0.501,0.113 0.29,0 0.516,-0.061 0.679,-0.183 0.117,-0.09 0.198,-0.193 0.244,-0.309 0.034,-0.09 0.055,-0.232 0.063,-0.425 h -0.478 c -0.02,0.329 -0.179,0.492 -0.474,0.492 -0.148,-0.003 -0.26,-0.032 -0.34,-0.083 -0.125,-0.084 -0.184,-0.196 -0.179,-0.341 -0.005,-0.164 0.06,-0.28 0.2,-0.344 0.129,-0.055 0.324,-0.123 0.586,-0.203 0.119,-0.039 0.231,-0.084 0.332,-0.132 0.272,-0.138 0.41,-0.386 0.415,-0.746 0,-0.325 -0.106,-0.579 -0.322,-0.769 -0.169,-0.148 -0.399,-0.222 -0.69,-0.216 -0.402,-0.006 -0.69,0.1 -0.866,0.316 -0.117,0.138 -0.184,0.369 -0.202,0.701 z m 2.011,2.155 h 0.509 v 0.579 l 0.459,0.235 V -1.345 H 89.44 V -1.76 h -0.625 v -1.866 l 0.007,-0.199 0.019,-0.103 c 0.028,-0.116 0.116,-0.171 0.264,-0.167 0.089,0 0.2,0.016 0.335,0.048 v -0.425 c -0.189,-0.029 -0.345,-0.045 -0.464,-0.045 -0.392,0 -0.6,0.2 -0.618,0.589 l -0.002,0.322 v 1.846 h -0.509 z m 2.255,-0.814 c 0.018,0.2 0.044,0.338 0.073,0.418 0.049,0.123 0.129,0.226 0.241,0.306 0.169,0.116 0.394,0.177 0.677,0.177 0.314,0 0.55,-0.067 0.71,-0.196 0.195,-0.155 0.291,-0.415 0.296,-0.788 v -1.204 l 0.003,-0.237 0.005,-0.309 c 0.005,-0.129 0.016,-0.229 0.028,-0.299 l 0.034,-0.139 h -0.443 c -0.042,0.148 -0.065,0.29 -0.07,0.425 l -0.039,-0.074 c -0.044,-0.077 -0.096,-0.148 -0.156,-0.203 -0.156,-0.154 -0.355,-0.235 -0.594,-0.235 -0.161,0 -0.311,0.036 -0.451,0.107 -0.099,0.045 -0.179,0.112 -0.246,0.199 -0.058,0.071 -0.104,0.161 -0.135,0.261 -0.045,0.122 -0.063,0.247 -0.063,0.386 0,0.125 0.016,0.244 0.055,0.36 0.036,0.116 0.093,0.222 0.171,0.315 0.091,0.116 0.187,0.196 0.288,0.241 0.218,0.097 0.49,0.148 0.812,0.152 h 0.342 c 0,0.312 -0.026,0.514 -0.078,0.608 -0.083,0.135 -0.236,0.205 -0.459,0.205 -0.156,0 -0.275,-0.032 -0.36,-0.093 -0.083,-0.061 -0.14,-0.186 -0.164,-0.383 z m 1.538,-0.752 h -0.293 c -0.236,-0.004 -0.428,-0.032 -0.576,-0.094 -0.213,-0.083 -0.321,-0.264 -0.321,-0.54 0,-0.183 0.054,-0.322 0.158,-0.415 0.104,-0.09 0.228,-0.135 0.371,-0.135 0.316,0 0.513,0.157 0.591,0.466 0.047,0.183 0.07,0.422 0.07,0.718 z m 0.961,1.566 h 0.508 v 0.579 l 0.459,0.235 v -0.814 h 0.625 V -1.76 h -0.625 v -1.866 l 0.008,-0.199 0.018,-0.103 c 0.029,-0.116 0.117,-0.171 0.265,-0.167 0.088,0 0.199,0.016 0.334,0.048 v -0.425 c -0.189,-0.029 -0.345,-0.045 -0.464,-0.045 -0.392,0 -0.599,0.2 -0.618,0.589 l -0.002,0.322 v 1.846 h -0.508 z m 2.215,0 h 0.459 V -4.43 h -0.459 z m 0.46,0 z m -0.019,1.329 H 95.89 L 95.224,-0.962 H 94.785 Z M 96.43,-3.5 c 0.026,-0.399 0.211,-0.595 0.55,-0.595 0.382,0.006 0.573,0.173 0.581,0.508 0,0.155 -0.062,0.267 -0.186,0.335 -0.083,0.041 -0.174,0.077 -0.27,0.109 -0.161,0.055 -0.322,0.106 -0.483,0.161 -0.212,0.074 -0.357,0.164 -0.435,0.267 -0.107,0.135 -0.161,0.315 -0.161,0.543 -0.003,0.184 0.041,0.345 0.129,0.489 0.089,0.145 0.198,0.248 0.332,0.312 0.156,0.078 0.322,0.113 0.501,0.113 0.291,0 0.516,-0.061 0.68,-0.183 0.117,-0.09 0.197,-0.193 0.243,-0.309 0.034,-0.09 0.055,-0.232 0.063,-0.425 h -0.477 c -0.021,0.329 -0.179,0.492 -0.475,0.492 -0.148,-0.003 -0.259,-0.032 -0.34,-0.083 -0.125,-0.084 -0.184,-0.196 -0.179,-0.341 -0.005,-0.164 0.06,-0.28 0.2,-0.344 0.13,-0.055 0.324,-0.123 0.586,-0.203 0.119,-0.039 0.231,-0.084 0.332,-0.132 0.272,-0.138 0.41,-0.386 0.415,-0.746 0,-0.325 -0.106,-0.579 -0.321,-0.769 -0.169,-0.148 -0.4,-0.222 -0.691,-0.216 -0.402,-0.006 -0.689,0.1 -0.866,0.316 -0.117,0.138 -0.184,0.369 -0.202,0.701 z m 2.011,2.155 h 0.509 v 0.579 l 0.459,0.235 v -0.814 h 0.625 V -1.76 h -0.625 v -1.866 l 0.008,-0.199 0.018,-0.103 c 0.028,-0.116 0.117,-0.171 0.264,-0.167 0.089,0 0.2,0.016 0.335,0.048 v -0.425 c -0.19,-0.029 -0.345,-0.045 -0.464,-0.045 -0.392,0 -0.599,0.2 -0.618,0.589 l -0.002,0.322 v 1.846 h -0.509 z m 2.222,0 h 0.459 V -4.43 h -0.459 z m 0.458,0 z m -0.479,1.352 h 0.503 v -0.592 h -0.503 z m 0.503,0 z m 2.415,-2.333 c -0.046,0.425 -0.238,0.64 -0.573,0.643 -0.101,0 -0.197,-0.019 -0.285,-0.064 -0.161,-0.08 -0.267,-0.215 -0.319,-0.408 -0.057,-0.206 -0.086,-0.425 -0.086,-0.657 0,-0.395 0.034,-0.682 0.104,-0.862 0.109,-0.286 0.301,-0.425 0.573,-0.421 0.309,0 0.498,0.141 0.568,0.421 0.018,0.074 0.037,0.168 0.047,0.277 h 0.477 c -0.026,-0.219 -0.054,-0.38 -0.088,-0.48 -0.049,-0.148 -0.132,-0.273 -0.246,-0.376 -0.195,-0.177 -0.447,-0.264 -0.752,-0.264 -0.392,0 -0.686,0.148 -0.88,0.441 -0.187,0.283 -0.28,0.666 -0.28,1.145 0,0.531 0.093,0.933 0.28,1.2 0.221,0.316 0.527,0.473 0.923,0.473 0.361,-0.003 0.626,-0.119 0.797,-0.351 0.096,-0.128 0.158,-0.283 0.187,-0.46 l 0.031,-0.257 h -0.478"
                 inkscape:connector-curvature="0" /></g><g
               transform="matrix(4.6558343,0,0,4.6558343,522.24576,439.03496)"
               id="g194"><path
                 id="path196"
                 style="fill:#004f88;fill-opacity:1;fill-rule:evenodd;stroke:none"
                 d="M 0,0 C 0.018,0.2 0.044,0.338 0.073,0.418 0.122,0.541 0.202,0.643 0.314,0.724 0.482,0.84 0.708,0.901 0.991,0.901 1.305,0.901 1.541,0.833 1.702,0.705 1.896,0.55 1.992,0.29 1.997,-0.084 V -1.287 L 2,-1.525 2.005,-1.833 c 0.005,-0.129 0.016,-0.229 0.029,-0.3 L 2.067,-2.271 H 1.624 c -0.042,0.148 -0.065,0.29 -0.07,0.424 L 1.515,-1.92 C 1.471,-1.998 1.419,-2.068 1.36,-2.123 1.204,-2.277 1.004,-2.358 0.765,-2.358 c -0.161,0 -0.311,0.036 -0.451,0.106 -0.099,0.045 -0.179,0.113 -0.246,0.2 -0.058,0.071 -0.104,0.16 -0.135,0.26 -0.044,0.123 -0.063,0.248 -0.063,0.387 0,0.125 0.016,0.244 0.055,0.36 0.036,0.115 0.093,0.222 0.171,0.315 0.091,0.116 0.187,0.196 0.288,0.241 0.218,0.097 0.49,0.148 0.812,0.151 H 1.538 C 1.538,-0.026 1.512,0.177 1.46,0.27 1.377,0.406 1.224,0.476 1.001,0.476 0.846,0.476 0.726,0.444 0.641,0.383 0.558,0.322 0.501,0.196 0.477,0 Z M 1.538,-0.753 H 1.245 C 1.009,-0.756 0.817,-0.785 0.67,-0.846 0.457,-0.93 0.348,-1.11 0.348,-1.386 c 0,-0.184 0.054,-0.322 0.158,-0.415 0.104,-0.091 0.228,-0.135 0.371,-0.135 0.316,0 0.513,0.157 0.591,0.466 0.047,0.183 0.07,0.421 0.07,0.717"
                 inkscape:connector-curvature="0" /></g><g
               transform="matrix(4.6558343,0,0,4.6558343,95.911005,517.85358)"
               id="g198"><path
                 id="path200"
                 style="fill:#7091be;fill-opacity:1;fill-rule:evenodd;stroke:none"
                 d="m 0,0 c 0.535,1.432 1.939,2.402 3.472,2.402 2.04,0 3.704,-1.664 3.704,-3.704 0,-2.04 -1.664,-3.704 -3.704,-3.704 -2.04,0 -3.703,1.664 -3.703,3.704 0,0.434 0.086,0.897 0.231,1.302"
                 inkscape:connector-curvature="0" /></g><g
               transform="matrix(4.6558343,0,0,4.6558343,182.94252,508.62571)"
               id="g202"><path
                 id="path204"
                 style="fill:#7091be;fill-opacity:1;fill-rule:evenodd;stroke:none"
                 d="m 0,0 -3.432,-9.392 c -0.235,-0.649 -0.521,-0.679 -1.075,-0.679 h -13.907 c 0,0 -0.485,0.003 0,0.679 4.333,6.025 9.584,10.281 18.19,10.063 0,0 0.469,0.002 0.224,-0.671"
                 inkscape:connector-curvature="0" /></g><g
               transform="matrix(4.6558343,0,0,4.6558343,41.144428,514.81797)"
               id="g206"><path
                 id="path208"
                 style="fill:#7091be;fill-opacity:1;fill-rule:evenodd;stroke:none"
                 d="m 0,0 3.432,9.392 c 0.235,0.649 0.521,0.679 1.075,0.679 l 13.964,-0.003 c 0,0 0.482,-0.002 0,-0.676 C 14.144,3.362 8.83,-0.889 0.223,-0.671 0.223,-0.671 -0.245,-0.673 0,0"
                 inkscape:connector-curvature="0" /></g><g
               transform="matrix(4.6558343,0,0,4.6558343,37.238184,468.01753)"
               id="g210"><path
                 id="path212"
                 style="fill:#7091be;fill-opacity:1;fill-rule:evenodd;stroke:none"
                 d="M 0,0 C -1.074,1.35 -1.51,3.375 -0.572,6.039 L 0.136,8.051 C 0.27,8.427 0.379,8.722 1.074,8.722 h 3.201 c 4.316,0 6.461,0 7.555,-1.342 1.093,-1.341 1.657,-3.28 0.657,-6.039 L 11.756,-0.671 C 11.636,-1.003 11.546,-1.35 10.715,-1.35 H 7.498 C 3.989,-1.35 1.074,-1.35 0,0"
                 inkscape:connector-curvature="0" /></g><g
               transform="matrix(4.6558343,0,0,4.6558343,187.16536,555.52859)"
               id="g214"><path
                 id="path216"
                 style="fill:#7091be;fill-opacity:1;fill-rule:evenodd;stroke:none"
                 d="m 0,0 c 1.074,-1.35 1.511,-3.375 0.573,-6.039 l -0.709,-2.012 c -0.134,-0.376 -0.243,-0.67 -0.938,-0.67 h -3.201 c -4.315,0 -6.461,0 -7.554,1.341 -1.094,1.341 -1.658,3.28 -0.657,6.039 l 0.73,2.012 c 0.12,0.332 0.21,0.679 1.042,0.679 h 3.217 c 3.509,0 6.423,0 7.497,-1.35"
                 inkscape:connector-curvature="0" /></g><g
               transform="matrix(4.6558343,0,0,4.6558343,192.0633,461.78802)"
               id="g218"><path
                 id="path220"
                 style="fill:#004f88;fill-opacity:1;fill-rule:evenodd;stroke:none"
                 d="m 0,0 7.814,21.491 h 6.085 L 6.322,0 Z m 10.063,0 7.815,21.491 h 7.717 c 2.298,-0.016 4.322,-0.179 6.089,-0.476 1.767,-0.296 2.518,-1.35 2.25,-3.176 -0.002,-0.015 -0.007,-0.045 -0.011,-0.074 -0.004,-0.03 -0.009,-0.06 -0.011,-0.074 -0.007,-0.045 -0.011,-0.075 -0.013,-0.089 -0.002,-0.015 -0.007,-0.045 -0.013,-0.09 -0.242,-1.646 -0.928,-2.982 -2.074,-4.021 -1.148,-1.04 -2.613,-1.722 -4.429,-2.063 1.696,-0.475 2.751,-1.069 3.165,-1.796 C 30.961,8.904 31.099,8.029 30.944,6.975 30.672,5.12 29.733,3.577 28.115,2.36 26.497,1.143 24.813,0.386 23.047,0.089 22.788,0.045 22.534,0.03 22.28,0.015 22.025,0 21.788,0 21.55,0 21.476,0 21.387,0 21.298,0 21.208,0 21.12,0 21.046,0 Z m 7.659,4.453 h 3.739 c 0.592,-0.015 1.173,0.207 1.748,0.683 0.575,0.474 0.963,0.993 1.166,1.573 0.025,0.073 0.054,0.162 0.079,0.237 0.026,0.074 0.039,0.163 0.05,0.237 0.068,0.46 -0.054,0.846 -0.377,1.172 -0.323,0.327 -0.908,0.49 -1.783,0.49 l -3.024,0.03 z m 3.207,9.112 h 3.503 c 0.709,-0.015 1.319,0.193 1.813,0.623 0.493,0.43 0.83,0.906 0.981,1.425 0.008,0.059 0.017,0.118 0.038,0.164 0.022,0.043 0.028,0.089 0.035,0.132 0.069,0.476 -0.048,0.892 -0.35,1.262 -0.301,0.371 -0.854,0.55 -1.67,0.55 l -3.023,0.029 z m 12.51,-5.373 c 0.731,4.17 2.616,7.51 5.653,10.003 3.037,2.493 6.663,3.74 10.878,3.74 0.46,0 0.933,-0.014 1.45,-0.029 0.518,-0.015 1.03,-0.06 1.556,-0.119 1.297,-0.163 2.468,-0.578 3.482,-1.247 1.016,-0.668 1.406,-1.855 1.155,-3.561 -0.037,-0.253 -0.093,-0.535 -0.169,-0.847 -0.075,-0.312 -0.18,-0.623 -0.304,-0.965 l -5.844,0.03 c 0.012,0.787 -0.178,1.411 -0.588,1.855 -0.41,0.446 -1.252,0.669 -2.543,0.669 -1.737,0 -3.4,-0.817 -4.993,-2.464 C 41.58,13.609 40.528,11.799 39.997,9.795 39.97,9.721 39.94,9.617 39.925,9.513 39.91,9.409 39.893,9.291 39.875,9.172 39.834,8.89 39.807,8.608 39.806,8.296 39.804,7.984 39.818,7.673 39.847,7.361 39.951,6.456 40.302,5.61 40.888,4.853 c 0.587,-0.757 1.554,-1.142 2.905,-1.142 0.342,0 0.806,0.029 1.408,0.088 0.602,0.06 1.331,0.268 2.199,0.624 l 1.201,3.532 h -4.185 l 1.569,4.423 h 10.3 L 52.228,0.713 c -2.147,-0.371 -4.12,-0.668 -5.887,-0.876 -1.767,-0.208 -3.296,-0.312 -4.587,-0.312 -0.059,0 -0.119,0 -0.164,0 -0.044,0 -0.089,0 -0.133,0 -0.045,0 -0.089,0 -0.133,0 -0.045,0 -0.105,0 -0.164,0 -3.282,-0.015 -5.494,0.787 -6.605,2.419 -1.112,1.633 -1.489,3.711 -1.121,6.218 z M 55.863,0 63.47,21.491 H 80.062 L 78.498,17.305 H 68.229 L 66.66,13.09 h 9.587 L 74.674,8.637 H 65.086 L 63.522,4.453 H 74.06 L 72.456,0 H 55.863"
                 inkscape:connector-curvature="0" /></g></g></g></g></g></g></svg>